<?xml version="1.0" standalone="no"?>
<!DOCTYPE svg PUBLIC "-//W3C//DTD SVG 20010904//EN"
 "http://www.w3.org/TR/2001/REC-SVG-20010904/DTD/svg10.dtd">
<svg version="1.0" xmlns="http://www.w3.org/2000/svg"
 width="1200.000000pt" height="1067.000000pt" viewBox="0 0 1200.000000 1067.000000"
 preserveAspectRatio="xMidYMid meet">

<g transform="translate(0.000000,1067.000000) scale(0.100000,-0.100000)"
fill="#000000" stroke="none">
<path d="M695 8663 c-56 -7 -137 -34 -175 -58 -151 -96 -167 -271 -60 -690
192 -753 656 -1770 1248 -2735 238 -388 653 -995 853 -1247 369 -463 800 -869
1244 -1172 615 -419 1239 -660 1920 -743 157 -19 604 -16 750 6 268 39 401
118 452 270 16 46 18 114 18 716 1 679 4 738 41 852 21 63 76 112 143 127 71
15 194 14 266 -3 196 -47 471 -221 800 -506 186 -162 553 -532 837 -845 424
-468 523 -553 713 -612 56 -17 110 -18 795 -18 789 0 789 0 895 52 67 32 119
85 147 147 34 76 32 221 -5 329 -141 409 -655 1055 -1657 2082 -215 219 -265
281 -307 370 -43 94 -39 170 14 277 23 45 101 169 174 273 577 828 1127 1716
1359 2190 247 508 281 761 116 873 -103 69 -79 67 -901 67 -690 0 -744 -1
-800 -18 -93 -29 -169 -74 -228 -136 -69 -72 -87 -105 -193 -346 -345 -784
-851 -1641 -1282 -2170 -204 -250 -418 -447 -567 -523 -63 -31 -155 -47 -199
-32 -44 14 -105 82 -131 146 -20 48 -20 78 -25 1409 -5 1273 -6 1365 -23 1433
-34 132 -110 210 -228 232 -37 7 -407 10 -1085 8 l-1029 -3 -50 -23 c-60 -27
-119 -82 -148 -137 -17 -31 -22 -57 -22 -120 0 -99 18 -136 135 -285 195 -248
272 -412 323 -694 22 -120 22 -132 22 -1171 0 -953 -2 -1057 -17 -1123 -31
-134 -75 -185 -170 -198 -304 -42 -908 722 -1473 1861 -240 485 -387 832 -590
1400 -118 327 -229 452 -435 484 -61 10 -1394 13 -1465 4z"/>
</g>
</svg>
