<?xml version="1.0" standalone="no"?>
<!DOCTYPE svg PUBLIC "-//W3C//DTD SVG 20010904//EN"
 "http://www.w3.org/TR/2001/REC-SVG-20010904/DTD/svg10.dtd">
<svg version="1.0" xmlns="http://www.w3.org/2000/svg"
 width="900.000000pt" height="900.000000pt" viewBox="0 0 900.000000 900.000000"
 preserveAspectRatio="xMidYMid meet">

<g transform="translate(0.000000,900.000000) scale(0.100000,-0.100000)"
fill="#000000" stroke="none">
<path d="M4115 8990 c-44 -4 -114 -13 -155 -19 -41 -6 -113 -16 -160 -21 -88
-10 -195 -31 -290 -57 -30 -8 -66 -16 -80 -18 -14 -1 -52 -10 -85 -20 -33 -9
-71 -19 -85 -22 -14 -3 -29 -9 -35 -13 -5 -5 -28 -11 -50 -14 -22 -3 -56 -12
-75 -20 -19 -8 -60 -23 -90 -34 -125 -45 -279 -107 -347 -138 -39 -19 -75 -34
-80 -34 -5 0 -35 -15 -66 -34 -31 -19 -57 -32 -57 -30 0 6 -103 -48 -110 -57
-3 -4 -21 -14 -40 -23 -40 -18 -107 -57 -165 -95 -22 -15 -61 -39 -87 -54 -26
-15 -53 -33 -60 -40 -8 -6 -21 -16 -30 -22 -48 -29 -231 -160 -255 -183 -16
-15 -44 -39 -63 -53 -63 -48 -233 -202 -335 -304 -211 -211 -440 -488 -540
-653 -5 -9 -16 -22 -22 -30 -7 -7 -31 -44 -53 -82 -22 -38 -46 -75 -53 -82
-12 -13 -39 -61 -81 -143 -11 -22 -22 -42 -26 -45 -9 -9 -62 -110 -56 -110 2
0 -11 -26 -30 -57 -19 -31 -34 -61 -34 -66 0 -5 -13 -37 -30 -72 -31 -66 -119
-280 -125 -305 -6 -23 -46 -133 -55 -150 -5 -9 -11 -36 -15 -60 -4 -25 -10
-49 -15 -55 -4 -5 -10 -21 -13 -35 -3 -14 -13 -52 -22 -85 -10 -33 -19 -71
-21 -85 -1 -14 -14 -70 -28 -125 -14 -55 -30 -136 -36 -180 -23 -170 -32 -232
-43 -295 -17 -90 -16 -851 0 -940 7 -36 17 -101 23 -145 25 -192 32 -234 55
-334 14 -58 30 -128 36 -156 11 -48 26 -100 50 -174 6 -18 13 -47 16 -65 3
-17 9 -38 13 -46 9 -17 49 -127 55 -150 6 -25 94 -239 125 -305 17 -35 30 -67
30 -72 0 -5 15 -35 34 -66 19 -31 32 -57 30 -57 -5 0 46 -100 56 -110 3 -3 16
-25 29 -50 56 -107 67 -126 78 -138 7 -7 29 -41 49 -75 49 -85 219 -325 277
-392 14 -16 74 -86 134 -155 136 -159 274 -297 433 -433 69 -60 139 -120 155
-134 67 -58 307 -228 392 -277 34 -20 68 -42 75 -49 12 -11 31 -22 138 -78 25
-13 47 -26 50 -29 10 -10 110 -61 110 -56 0 2 26 -11 57 -30 31 -19 62 -34 68
-34 5 0 38 -14 72 -30 64 -31 276 -119 303 -125 23 -6 133 -46 150 -55 8 -4
29 -10 46 -13 18 -3 47 -10 65 -16 74 -24 126 -39 174 -50 28 -6 98 -22 156
-36 102 -23 156 -32 339 -56 47 -6 105 -15 130 -20 25 -6 196 -13 380 -16 323
-5 480 2 650 28 36 5 88 12 115 14 69 6 205 31 300 56 44 11 91 22 105 23 14
2 52 11 85 21 33 9 71 19 85 22 14 3 30 9 35 13 6 5 30 11 55 15 24 4 51 10
60 15 17 9 127 49 150 55 25 6 239 94 305 125 35 17 67 30 72 30 5 0 35 15 66
34 31 19 57 32 57 30 0 -6 103 48 110 57 3 4 21 14 40 23 40 18 107 57 165 95
22 15 61 39 87 54 26 15 53 33 60 40 8 6 21 17 30 22 47 28 234 162 258 185
15 14 43 37 61 52 164 125 512 473 637 637 15 18 38 46 52 61 23 24 157 211
185 258 6 9 16 22 22 30 7 7 25 34 40 60 15 26 39 65 54 87 38 58 77 125 95
165 9 19 19 37 23 40 9 7 63 110 57 110 -2 0 11 26 30 57 19 31 34 61 34 66 0
5 15 41 34 80 31 68 93 222 138 347 11 30 26 71 34 90 8 19 17 53 20 75 3 22
9 45 14 50 4 6 10 21 13 35 3 14 14 57 25 95 11 39 20 77 20 85 0 8 12 60 26
115 14 55 30 136 36 180 23 170 32 232 43 295 17 90 16 851 0 940 -7 36 -17
101 -23 145 -25 192 -32 234 -55 334 -14 58 -30 129 -36 156 -11 48 -26 100
-50 174 -6 18 -13 47 -16 65 -3 17 -9 38 -13 46 -9 17 -49 127 -55 150 -6 27
-94 239 -125 303 -16 34 -30 67 -30 72 0 6 -15 37 -34 68 -19 31 -32 57 -30
57 5 0 -46 100 -56 110 -3 3 -16 25 -29 50 -56 107 -67 126 -78 138 -7 7 -29
41 -49 75 -49 85 -219 325 -277 392 -14 17 -74 86 -134 155 -136 159 -274 297
-433 433 -69 60 -138 120 -155 134 -67 58 -307 228 -392 277 -34 20 -68 42
-75 49 -12 11 -31 22 -138 78 -25 13 -47 26 -50 29 -10 10 -110 61 -110 56 0
-2 -26 11 -57 30 -31 19 -62 34 -68 34 -5 0 -38 14 -72 30 -64 31 -276 119
-303 125 -23 6 -133 46 -150 55 -8 4 -29 10 -46 13 -18 3 -47 10 -65 16 -74
24 -126 39 -174 50 -27 6 -98 22 -156 36 -102 23 -156 32 -339 56 -47 6 -105
15 -130 21 -57 12 -757 19 -865 8z m575 -365 c287 -11 286 -11 530 -56 63 -12
126 -23 140 -25 22 -3 104 -24 275 -68 75 -20 322 -104 373 -127 24 -12 53
-22 63 -24 30 -6 279 -126 424 -205 148 -81 449 -276 504 -328 14 -13 42 -36
61 -50 19 -15 62 -49 95 -77 33 -27 73 -61 90 -75 39 -32 313 -306 345 -345
14 -17 48 -57 75 -90 28 -33 62 -76 77 -95 14 -19 37 -47 50 -61 52 -55 247
-356 328 -504 79 -145 199 -394 205 -424 2 -10 12 -39 24 -63 23 -51 107 -298
127 -373 44 -171 65 -253 68 -275 2 -14 13 -77 25 -140 44 -243 43 -227 59
-572 4 -80 4 -206 1 -280 -19 -374 -16 -350 -70 -638 -30 -162 -40 -204 -73
-325 -40 -143 -48 -171 -56 -190 -5 -11 -21 -56 -35 -100 -15 -44 -36 -100
-47 -124 -11 -24 -21 -51 -23 -61 -3 -16 -32 -79 -128 -280 -79 -164 -324
-557 -409 -655 -15 -16 -48 -57 -75 -91 -93 -118 -149 -180 -273 -306 l-125
-127 -57 37 c-112 73 -242 148 -308 177 -19 9 -60 28 -90 44 -30 16 -73 34
-94 41 -22 7 -53 21 -70 30 -17 10 -42 21 -56 25 -14 4 -43 15 -65 25 -76 34
-120 52 -160 65 -39 13 -142 54 -200 80 -16 7 -59 25 -95 40 -36 14 -94 40
-130 58 -36 17 -67 32 -70 32 -10 2 -77 39 -172 97 -188 113 -358 313 -359
422 0 17 -2 183 -5 370 l-6 339 40 36 c83 76 215 310 279 496 47 137 54 160
59 200 2 22 9 66 16 97 12 59 14 61 74 73 40 8 123 93 163 166 29 54 44 103
77 254 23 101 15 235 -16 300 -13 28 -23 53 -22 57 1 3 -16 25 -38 47 -47 48
-49 64 -17 163 40 121 47 150 63 233 8 44 19 100 25 125 22 99 29 151 41 290
22 262 13 589 -19 710 -8 30 -17 66 -20 80 -3 14 -9 30 -13 35 -7 10 -20 51
-27 89 -2 11 -7 24 -12 30 -5 6 -24 40 -42 76 -33 67 -73 119 -145 193 -92 95
-123 115 -274 187 -35 16 -188 60 -218 62 -27 2 -40 12 -68 49 -57 79 -157
145 -294 195 -92 34 -131 46 -170 50 -14 1 -63 7 -110 13 -107 14 -326 14
-450 0 -52 -6 -113 -12 -135 -14 -52 -4 -114 -14 -145 -25 -14 -4 -63 -18
-110 -30 -90 -24 -94 -25 -180 -62 -220 -93 -392 -224 -515 -393 -32 -44 -63
-83 -68 -86 -4 -3 -9 -12 -10 -20 -2 -8 -5 -18 -9 -24 -20 -32 -58 -109 -58
-117 0 -6 -7 -26 -16 -46 -37 -84 -52 -129 -59 -172 -4 -19 -11 -55 -16 -80
-43 -189 -57 -428 -39 -645 11 -135 16 -181 40 -330 7 -38 13 -90 15 -115 2
-25 9 -65 15 -90 20 -80 32 -124 42 -151 5 -14 10 -41 10 -60 0 -19 5 -42 10
-52 7 -14 0 -27 -36 -63 -25 -25 -45 -48 -44 -52 2 -9 -14 -45 -22 -52 -15
-12 -30 -94 -30 -166 0 -72 11 -143 40 -249 6 -22 13 -51 16 -65 18 -84 138
-233 198 -245 60 -12 62 -14 74 -73 7 -31 14 -75 16 -97 3 -23 14 -68 26 -100
11 -33 28 -80 36 -105 14 -43 48 -118 101 -225 44 -86 131 -213 178 -258 l45
-44 0 -264 c0 -359 -9 -479 -44 -547 -15 -29 -34 -62 -44 -75 -42 -55 -183
-184 -247 -225 -82 -53 -276 -153 -355 -183 -30 -11 -59 -24 -65 -28 -5 -4
-53 -25 -105 -46 -52 -20 -114 -46 -137 -56 -23 -11 -47 -19 -53 -19 -6 0 -30
-8 -53 -19 -97 -43 -140 -61 -148 -61 -4 0 -38 -14 -76 -32 -37 -18 -72 -33
-78 -34 -16 -3 -227 -105 -254 -123 -13 -8 -29 -16 -36 -17 -7 -1 -36 -17 -66
-36 -30 -19 -83 -54 -119 -76 l-65 -42 -125 128 c-120 121 -183 191 -260 290
-19 24 -53 65 -75 91 -73 84 -258 367 -345 526 -79 145 -199 394 -205 424 -2
10 -12 39 -24 63 -23 51 -107 299 -126 373 -8 28 -22 84 -33 125 -17 64 -49
224 -92 461 -20 110 -37 511 -29 681 19 374 16 350 70 638 30 162 40 204 73
325 40 143 48 171 56 190 5 11 21 56 35 100 15 44 36 100 47 124 11 24 21 52
23 62 4 18 40 96 119 259 91 189 339 589 414 669 13 14 36 42 50 61 15 19 49
62 77 95 27 33 61 73 75 90 32 39 306 313 345 345 17 14 57 48 90 75 33 28 76
62 95 77 19 14 47 37 61 50 76 71 485 326 649 405 201 96 264 125 280 128 10
2 37 12 61 23 24 11 80 32 124 47 44 14 89 30 100 35 19 8 47 16 190 56 121
33 163 43 325 73 295 55 252 51 630 70 74 4 144 6 155 5 11 -2 90 -6 175 -9z"/>
</g>
</svg>
